#N canvas 21 142 1419 619 12;
#X floatatom 790 29 5 0 0 0 - - - 0;
#X floatatom 839 29 5 0 0 0 - - - 0;
#X obj 763 695 dac~;
#X obj 34 119 soundfiler;
#X obj 35 214 soundfiler;
#X floatatom 797 632 5 0 0 0 - - - 0;
#X obj 558 527 *~;
#X obj 603 525 *~;
#X obj 467 181 send~ bassDrum;
#X obj 529 395 receive~ bassDrum;
#X obj 579 181 send~ snare;
#X obj 572 431 receive~ snare;
#X obj 646 525 *~;
#X obj 682 525 *~;
#X obj 34 315 soundfiler;
#X obj 580 150 tabplay~ snare;
#X msg 34 94 read -resize ./808/000.wav bass;
#X msg 35 189 read -resize ./808/001.wav snare;
#N canvas 0 22 450 278 (subpatch) 0;
#X array bass 65111 float 2;
#X coords 0 1 65111 -1 233 19 1;
#X restore 85 63 graph;
#N canvas 0 22 450 278 (subpatch) 0;
#X array snare 11832 float 2;
#X coords 0 1 11832 -1 243 19 1;
#X restore 84 159 graph;
#N canvas 0 22 450 278 (subpatch) 0;
#X array claps 42421 float 2;
#X coords 0 1 42421 -1 249 19 1;
#X restore 82 255 graph;
#X obj 691 180 send~ claps;
#X obj 467 152 tabplay~ bass;
#X msg 34 290 read -resize ./808/002.wav claps;
#X obj 692 149 tabplay~ claps;
#X obj 617 458 receive~ claps;
#X obj 447 394 loadbang;
#X obj 446 428 s load;
#X obj 34 63 r load;
#X obj 35 159 r load;
#X obj 34 255 r load;
#X obj 796 564 r load;
#X obj 34 408 soundfiler;
#X obj 35 503 soundfiler;
#X obj 34 604 soundfiler;
#X obj 34 352 r load;
#X obj 35 448 r load;
#X obj 34 544 r load;
#N canvas 0 22 450 278 (subpatch) 0;
#X array plum 21768 float 2;
#X coords 0 1 21768 -1 235 19 1;
#X restore 85 352 graph;
#X msg 34 383 read -resize ./808/003.wav plum;
#X obj 812 147 tabplay~ plum;
#X obj 811 178 send~ plum;
#X obj 918 145 tabplay~ hi-hat;
#X obj 917 176 send~ hi-hat;
#N canvas 0 22 450 278 (subpatch) 0;
#X array open-hi-hat 18392 float 2;
#X coords 0 1 18392 -1 244 19 1;
#X restore 85 544 graph;
#N canvas 0 22 450 278 (subpatch) 0;
#X array hi-hat 5827 float 2;
#X coords 0 1 5827 -1 241 19 1;
#X restore 86 448 graph;
#X msg 34 579 read -resize ./808/005.wav open-hi-hat;
#X msg 35 478 read -resize ./808/004.wav hi-hat;
#X obj 1037 173 send~ open-hi-hat;
#X obj 1038 142 tabplay~ open-hi-hat;
#X obj 717 525 *~;
#X obj 756 525 *~;
#X obj 688 391 receive~ plum;
#X obj 731 427 receive~ hi-hat;
#X obj 776 454 receive~ open-hi-hat;
#X msg 797 598 10;
#X obj 467 133 bng 15 250 50 0 empty empty empty 17 7 0 10 #fcfcfc
#000000 #000000;
#X obj 466 107 select 48;
#X obj 579 104 select 50;
#X obj 691 103 select 52;
#X obj 580 131 bng 15 250 50 0 empty empty empty 17 7 0 10 #fcfcfc
#000000 #000000;
#X obj 812 127 bng 15 250 50 0 empty empty empty 17 7 0 10 #fcfcfc
#000000 #000000;
#X obj 692 130 bng 15 250 50 0 empty empty empty 17 7 0 10 #fcfcfc
#000000 #000000;
#X obj 918 124 bng 15 250 50 0 empty empty empty 17 7 0 10 #fcfcfc
#000000 #000000;
#X obj 1038 123 bng 15 250 50 0 empty empty empty 17 7 0 10 #fcfcfc
#000000 #000000;
#X obj 811 99 select 53;
#X obj 918 100 select 55;
#X obj 1038 99 select 57;
#X obj 1224 31 loadbang;
#X msg 1224 51 \; pd dsp 1;
#X obj 431 338 tabwrite~ audioData;
#X msg 762 288 start;
#X obj 868 232 sel 1;
#X obj 866 263 bng 15 250 50 0 empty empty empty 17 7 0 10 #fcfcfc
#000000 #000000;
#X obj 912 266 bng 15 250 50 0 empty empty empty 17 7 0 10 #fcfcfc
#000000 #000000;
#X msg 822 286 stop;
#X obj 959 327 timer;
#X floatatom 959 357 5 0 0 0 - - - 0;
#X obj 960 383 t f f;
#X obj 960 413 expr 1000/$f1;
#X obj 943 443 phasor~;
#X obj 963 479 *~;
#X obj 1000 480 * 44.1;
#X obj 961 554 *~;
#X obj 875 205 tgl 15 0 empty empty empty 17 7 0 10 #fcfcfc #000000
#000000 0 1;
#X obj 392 215 adc~;
#X obj 393 281 *~;
#X floatatom 451 259 5 0 0 0 - - - 0;
#X obj 386 411 vu 15 120 empty empty -1 -8 0 10 #404040 #000000 1 0
;
#X obj 378 324 env~;
#X obj 961 512 tabread4~ audioData;
#X obj 1127 407 vd~;
#X obj 788 2 notein;
#X obj 1144 534 hsl 128 15 0 127 0 0 empty empty empty -2 -8 0 10 #fcfcfc
#000000 #000000 0 1;
#N canvas 0 22 450 278 (subpatch) 0;
#X array audioData 100 float 3;
#A 0 0 0 0 0 0 0 0 0 0 0 0 0 0 0 0 0 0 0 0 0 0 0 0 0 0 0 0 0 0 0 0
0 0 0 0 0 0 0 0 0 0 0 0 0 0 0 0 0 0 0 0 0 0 0 0 0 0 0 0 0 0 0 0 0 0
0 0 0 0 0 0 0 0 0 0 0 0 0 0 0 0 0 0 0 0 0 0 0 0 0 0 0 0 0 0 0 0 0 0
0;
#X coords 0 1 100 -1 200 140 1;
#X restore 1115 241 graph;
#X obj 382 373 - 110;
#X connect 0 0 57 0;
#X connect 0 0 58 0;
#X connect 0 0 59 0;
#X connect 0 0 65 0;
#X connect 0 0 66 0;
#X connect 0 0 67 0;
#X connect 5 0 7 1;
#X connect 5 0 6 1;
#X connect 5 0 13 1;
#X connect 5 0 50 1;
#X connect 5 0 51 1;
#X connect 5 0 12 1;
#X connect 6 0 2 0;
#X connect 6 0 2 1;
#X connect 7 0 2 0;
#X connect 7 0 2 1;
#X connect 9 0 6 0;
#X connect 11 0 7 0;
#X connect 12 0 2 0;
#X connect 12 0 2 1;
#X connect 13 0 2 0;
#X connect 13 0 2 1;
#X connect 15 0 10 0;
#X connect 16 0 3 0;
#X connect 17 0 4 0;
#X connect 22 0 8 0;
#X connect 23 0 14 0;
#X connect 24 0 21 0;
#X connect 25 0 12 0;
#X connect 26 0 27 0;
#X connect 28 0 16 0;
#X connect 29 0 17 0;
#X connect 30 0 23 0;
#X connect 31 0 55 0;
#X connect 35 0 39 0;
#X connect 36 0 47 0;
#X connect 37 0 46 0;
#X connect 39 0 32 0;
#X connect 40 0 41 0;
#X connect 42 0 43 0;
#X connect 46 0 34 0;
#X connect 47 0 33 0;
#X connect 49 0 48 0;
#X connect 50 0 2 0;
#X connect 50 0 2 1;
#X connect 51 0 2 0;
#X connect 51 0 2 1;
#X connect 52 0 13 0;
#X connect 53 0 50 0;
#X connect 54 0 51 0;
#X connect 55 0 5 0;
#X connect 56 0 22 0;
#X connect 57 0 56 0;
#X connect 58 0 60 0;
#X connect 59 0 62 0;
#X connect 60 0 15 0;
#X connect 61 0 40 0;
#X connect 62 0 24 0;
#X connect 63 0 42 0;
#X connect 64 0 49 0;
#X connect 65 0 61 0;
#X connect 66 0 63 0;
#X connect 67 0 64 0;
#X connect 68 0 69 0;
#X connect 71 0 70 0;
#X connect 72 0 73 0;
#X connect 72 1 74 0;
#X connect 73 0 71 0;
#X connect 73 0 76 0;
#X connect 74 0 75 0;
#X connect 74 0 76 1;
#X connect 75 0 70 0;
#X connect 76 0 77 0;
#X connect 77 0 78 0;
#X connect 78 0 79 0;
#X connect 78 1 82 0;
#X connect 79 0 80 0;
#X connect 80 0 81 0;
#X connect 81 0 90 0;
#X connect 82 0 81 1;
#X connect 83 0 2 0;
#X connect 83 0 2 1;
#X connect 84 0 72 0;
#X connect 85 0 86 0;
#X connect 86 0 89 0;
#X connect 86 0 70 0;
#X connect 87 0 86 1;
#X connect 89 0 95 0;
#X connect 90 0 83 0;
#X connect 92 0 0 0;
#X connect 92 1 1 0;
#X connect 93 0 83 1;
#X connect 95 0 88 0;
