#N canvas 3 26 1437 778 12;
#X obj 677 709 dac~;
#X obj 36 192 soundfiler;
#X obj 37 280 soundfiler;
#X floatatom 906 450 5 0 0 0 - - - 0;
#X obj 558 527 *~;
#X obj 603 525 *~;
#X obj 477 327 send~ bassDrum;
#X obj 529 395 receive~ bassDrum;
#X obj 588 327 send~ snare;
#X obj 572 431 receive~ snare;
#X obj 646 525 *~;
#X obj 682 525 *~;
#X obj 36 381 soundfiler;
#X obj 588 282 tabplay~ snare;
#N canvas 0 22 450 278 (subpatch) 0;
#X array bass 12674 float 2;
#X coords 0 1 12674 -1 233 19 1;
#X restore 87 129 graph;
#N canvas 0 22 450 278 (subpatch) 0;
#X array snare 24197 float 4;
#X coords 0 1 24196 -1 243 19 1;
#X restore 86 225 graph;
#N canvas 0 22 450 278 (subpatch) 0;
#X array claps 13120 float 2;
#X coords 0 1 13120 -1 249 19 1 0 0;
#X restore 84 321 graph;
#X obj 701 327 send~ claps;
#X obj 477 284 tabplay~ bass;
#X obj 700 281 tabplay~ claps;
#X obj 617 458 receive~ claps;
#X obj 32 23 loadbang;
#X obj 32 49 s load;
#X obj 36 129 r load;
#X obj 37 225 r load;
#X obj 36 321 r load;
#X obj 905 382 r load;
#X obj 36 474 soundfiler;
#X obj 37 569 soundfiler;
#X obj 36 670 soundfiler;
#X obj 36 418 r load;
#X obj 37 514 r load;
#X obj 36 610 r load;
#N canvas 0 22 450 278 (subpatch) 0;
#X array plum 29151 float 2;
#X coords 0 1 29151 -1 235 19 1;
#X restore 87 418 graph;
#X obj 820 280 tabplay~ plum;
#X obj 821 324 send~ plum;
#X obj 928 279 tabplay~ hi-hat;
#X obj 929 321 send~ hi-hat;
#N canvas 0 22 450 278 (subpatch) 0;
#X array open-hi-hat 2.67908e+06 float 2;
#X coords 0 1 2.67908e+06 -1 244 19 1;
#X restore 87 610 graph;
#N canvas 0 22 450 278 (subpatch) 0;
#X array hi-hat 11848 float 2;
#X coords 0 1 11848 -1 241 19 1;
#X restore 88 514 graph;
#X obj 1141 716 send~ open-hi-hat;
#X obj 1142 685 tabplay~ open-hi-hat;
#X obj 717 525 *~;
#X obj 841 656 *~;
#X obj 688 391 receive~ plum;
#X obj 731 427 receive~ hi-hat;
#X obj 843 558 receive~ open-hi-hat;
#X obj 820 197 bng 65 250 50 0 empty empty empty 17 7 0 10 #ffc7c6
#c7c6ff #000000;
#X obj 1231 51 loadbang;
#X msg 1231 71 \; pd dsp 1;
#X obj 477 173 select 1;
#X obj 588 172 select 2;
#X obj 699 171 select 3;
#X obj 819 169 select 4;
#X obj 928 167 select 5;
#X obj 117 18 tgl 45 0 empty empty empty 17 7 0 10 #e3c6ff #000000
#000000 0 1;
#X msg 37 544 read -resize ./Kaytranada-kit/Hat/Hat05-TOGETHER.wav
hi-hat;
#X msg 37 255 read -resize ./Kaytranada-kit/Snare/Snare05.wav snare
;
#X msg 36 356 read -resize ./Kaytranada-kit/Clap/ck.wav claps;
#X obj 722 61 metro 100 1 msec;
#X msg 906 416 2;
#X floatatom 831 40 5 0 0 0 - - - 0;
#X obj 724 119 random 2;
#X floatatom 777 87 5 0 0 0 - - - 0;
#X obj 1031 66 random 13;
#X obj 1030 45 metro 2000 1 msec;
#X obj 700 202 bng 65 250 50 0 empty empty empty 17 7 0 10 #ffc7c6
#c7c6ff #000000;
#X obj 928 193 bng 65 250 50 0 empty empty empty 17 7 0 10 #ffc7c6
#c7c6ff #000000;
#X obj 1140 576 bng 65 250 50 0 empty empty empty 17 7 0 10 #ffc7c6
#e3c6ff #000000;
#X obj 588 201 bng 65 250 50 0 empty empty empty 17 7 0 10 #ffc7c6
#c7c6ff #e3c6ff;
#X obj 477 203 bng 65 250 50 0 empty empty empty 17 7 0 10 #ffc7c6
#c7c6ff #000000;
#X obj 117 68 s startPatch;
#X obj 722 38 r startPatch;
#X obj 1030 17 r startPatch;
#X obj 1284 527 bng 15 250 50 0 empty empty empty 17 7 0 10 #fcfcfc
#000000 #000000;
#X obj 1138 495 loadbang;
#X floatatom 930 654 5 0 0 0 - - - 0;
#X msg 36 645 read -resize ./CathLoop.wav open-hi-hat;
#X obj 1021 584 r load;
#X obj 842 628 rev1~;
#X floatatom 870 596 5 0 0 0 - - - 0;
#X msg 1022 618 2;
#X msg 36 157 read -resize ./Kaytranada-kit/Kick/Kick-08-TRACKUNO.wav
bass, f 53;
#X msg 36 449 read -resize ./Pharrell.wav plum;
#X msg 864 19 100;
#X msg 832 19 120;
#X obj 864 2 bng 15 250 50 0 empty empty empty 17 7 0 10 #fcfcfc #000000
#000000;
#X obj 832 2 bng 15 250 50 0 empty empty empty 17 7 0 10 #fcfcfc #000000
#000000;
#X connect 3 0 5 1;
#X connect 3 0 4 1;
#X connect 3 0 11 1;
#X connect 3 0 42 1;
#X connect 3 0 10 1;
#X connect 4 0 0 0;
#X connect 4 0 0 1;
#X connect 5 0 0 0;
#X connect 5 0 0 1;
#X connect 7 0 4 0;
#X connect 9 0 5 0;
#X connect 10 0 0 0;
#X connect 10 0 0 1;
#X connect 11 0 0 0;
#X connect 11 0 0 1;
#X connect 13 0 8 0;
#X connect 18 0 6 0;
#X connect 19 0 17 0;
#X connect 20 0 10 0;
#X connect 21 0 22 0;
#X connect 23 0 82 0;
#X connect 24 0 57 0;
#X connect 25 0 58 0;
#X connect 26 0 60 0;
#X connect 30 0 83 0;
#X connect 31 0 56 0;
#X connect 32 0 77 0;
#X connect 34 0 35 0;
#X connect 36 0 37 0;
#X connect 41 0 40 0;
#X connect 41 1 74 0;
#X connect 42 0 0 0;
#X connect 42 0 0 1;
#X connect 43 0 0 0;
#X connect 43 0 0 1;
#X connect 44 0 11 0;
#X connect 45 0 42 0;
#X connect 46 0 79 0;
#X connect 47 0 34 0;
#X connect 48 0 49 0;
#X connect 50 0 70 0;
#X connect 51 0 69 0;
#X connect 52 0 66 0;
#X connect 53 0 47 0;
#X connect 54 0 67 0;
#X connect 55 0 71 0;
#X connect 56 0 28 0;
#X connect 57 0 2 0;
#X connect 58 0 12 0;
#X connect 59 0 62 0;
#X connect 60 0 3 0;
#X connect 61 0 59 1;
#X connect 62 0 50 0;
#X connect 62 0 51 0;
#X connect 62 0 52 0;
#X connect 62 0 53 0;
#X connect 62 0 54 0;
#X connect 63 0 62 1;
#X connect 64 0 63 0;
#X connect 65 0 64 0;
#X connect 66 0 19 0;
#X connect 67 0 36 0;
#X connect 68 0 41 0;
#X connect 69 0 13 0;
#X connect 70 0 18 0;
#X connect 72 0 59 0;
#X connect 73 0 65 0;
#X connect 74 0 68 0;
#X connect 75 0 68 0;
#X connect 76 0 43 1;
#X connect 77 0 29 0;
#X connect 78 0 81 0;
#X connect 79 0 43 0;
#X connect 80 0 79 1;
#X connect 81 0 76 0;
#X connect 82 0 1 0;
#X connect 83 0 27 0;
#X connect 84 0 61 0;
#X connect 85 0 61 0;
#X connect 86 0 84 0;
#X connect 87 0 85 0;
